<svg width="40" height="40" viewBox="0 0 40 40" fill="none" xmlns="http://www.w3.org/2000/svg">
<path d="M16.9673 20.8331L22.4887 30.3966L16.9673 39.96L5.92432 39.96L0.402832 30.3965L5.9243 20.8331L16.9673 20.8331ZM34.4307 10.7505L39.9522 20.314L34.4307 29.8775L23.3878 29.8775L17.8663 20.314L23.3877 10.7505L34.4307 10.7505ZM1.55743 30.3964L6.50128 38.9594L16.3896 38.9595L21.3337 30.3959L16.3898 21.8329L6.50145 21.8327L1.55743 30.3964ZM19.0209 20.3138L23.9647 28.8768L33.8531 28.877L38.7971 20.3134L33.8532 11.7504L23.9649 11.7502L19.0209 20.3138ZM16.5329 0.942005L22.22 10.4076L17.223 19.8521L6.53748 19.8307L0.85036 10.365L5.84788 0.921387L16.5329 0.942005ZM1.99828 10.3338L7.10403 18.8315L16.6207 18.85L21.0724 10.4376L15.9663 1.94118L6.44913 1.92178L1.99828 10.3338Z" fill="black"/>
</svg>
